<?xml version="1.0" encoding="UTF-8" standalone="no"?>
<!DOCTYPE svg PUBLIC "-//W3C//DTD SVG 1.1//EN" "http://www.w3.org/Graphics/SVG/1.1/DTD/svg11.dtd">
<svg width="100%" height="100%" viewBox="0 0 30 30" version="1.1" xmlns="http://www.w3.org/2000/svg" xmlns:xlink="http://www.w3.org/1999/xlink" xml:space="preserve" style="fill-rule:evenodd;clip-rule:evenodd;stroke-linejoin:round;stroke-miterlimit:2;">
    <g transform="matrix(0.161824,0,0,0.161824,-41.6379,-30.311)">
        <path d="M438.59,292.49C440.383,295.064 439.711,298.537 437.192,300.275L426.719,307.556C425.765,308.228 424.648,308.564 423.527,308.564C422.801,308.564 422.07,308.396 421.344,308.115L406.055,301.787C404.934,306.826 403.086,311.697 400.621,316.291L415.18,322.283C416.469,322.842 417.532,323.849 418.09,325.139L422.797,335.33C424.086,338.13 422.852,341.435 420.055,342.72C419.328,343.111 418.489,343.224 417.703,343.224C415.574,343.224 413.559,342.048 412.606,339.978L408.852,331.802L394.067,325.697C383.204,338.521 367.075,346.08 349.997,346.08C332.919,346.08 316.79,338.521 305.927,325.697L291.142,331.802L287.333,339.978C286.439,342.048 284.364,343.224 282.294,343.224C281.509,343.224 280.669,343.111 279.942,342.72C277.142,341.431 275.911,338.126 277.2,335.33L281.903,325.139C282.462,323.849 283.528,322.842 284.814,322.283L299.373,316.291C296.908,311.697 295.06,306.826 293.939,301.787L278.65,308.115C277.923,308.396 277.193,308.564 276.466,308.564C275.345,308.564 274.228,308.228 273.275,307.556L262.802,300.275C260.282,298.541 259.611,295.068 261.404,292.49C263.138,289.971 266.669,289.353 269.189,291.092L277.142,296.635L292.599,290.193L292.599,289.857C292.599,283.81 293.607,277.873 295.509,272.216L278.654,279.216C277.928,279.552 277.197,279.665 276.47,279.665C275.349,279.665 274.232,279.33 273.279,278.658L262.806,271.435C260.287,269.642 259.615,266.169 261.408,263.595C263.142,261.076 266.673,260.458 269.193,262.197L277.146,267.74L303.857,256.65C309.962,248.474 318.138,242.201 327.431,238.283C327.431,238.228 327.376,238.17 327.318,238.06L321.548,221.372C320.54,218.462 322.052,215.267 324.962,214.259C327.931,213.196 331.123,214.763 332.13,217.673L337.9,234.415C337.955,234.583 337.955,234.806 338.013,234.974C341.876,234.188 345.908,233.684 349.997,233.684C354.087,233.684 358.118,234.188 361.981,234.974C362.036,234.806 362.036,234.583 362.094,234.415L367.864,217.673C368.872,214.763 372.063,213.192 374.977,214.259C377.946,215.267 379.458,218.458 378.45,221.372L372.68,238.06C372.626,238.173 372.567,238.228 372.567,238.283C381.864,242.205 390.04,248.474 396.141,256.65L422.852,267.74L430.805,262.197C433.325,260.462 436.852,261.076 438.59,263.595C440.383,266.169 439.711,269.642 437.192,271.435L426.719,278.658C425.766,279.33 424.649,279.665 423.528,279.665C422.801,279.665 422.071,279.552 421.344,279.216L404.489,272.216C406.391,277.872 407.399,283.81 407.399,289.857L407.399,290.193L422.856,296.635L430.809,291.092C433.325,289.299 436.852,289.971 438.59,292.49L438.59,292.49Z" style="fill-rule:nonzero;"/>
    </g>
</svg>
