<?xml version="1.0" encoding="UTF-8" standalone="no"?>
<!DOCTYPE svg PUBLIC "-//W3C//DTD SVG 1.1//EN" "http://www.w3.org/Graphics/SVG/1.1/DTD/svg11.dtd">
<svg width="100%" height="100%" viewBox="0 0 30 30" version="1.1" xmlns="http://www.w3.org/2000/svg" xmlns:xlink="http://www.w3.org/1999/xlink" xml:space="preserve" style="fill-rule:evenodd;clip-rule:evenodd;stroke-linejoin:round;stroke-miterlimit:2;">
    <g transform="matrix(0.00299394,0,0,0.00299394,13.2036,-2.04507)">
        <g transform="matrix(19.2187,0,0,19.2187,-6126.56,311.951)">
            <path d="M350,532C488.88,532 602,418.88 602,280C602,141.12 488.88,28 350,28C211.12,28 98,141.12 98,280C98,418.88 211.12,532 350,532ZM350,62.72C469.84,62.72 567.28,160.161 567.28,280C567.28,399.839 469.839,497.28 350,497.28C230.161,497.28 132.72,399.839 132.72,280C132.72,160.161 230.161,62.72 350,62.72Z" style="fill-rule:nonzero;"/>
        </g>
        <g transform="matrix(19.2187,0,0,19.2187,-6126.56,311.951)">
            <path d="M308,367.92C311.359,370.721 315.281,371.842 319.199,371.842C323.68,371.842 328.16,370.162 331.519,366.803L478.799,217.843C485.518,211.124 485.518,199.921 478.799,193.202C472.08,186.483 460.877,186.483 454.158,193.202L318.078,330.962L259.84,281.681C252.559,275.521 241.36,276.642 235.199,283.919C229.039,291.2 230.16,302.399 237.437,308.56L308,367.92Z" style="fill-rule:nonzero;"/>
        </g>
    </g>
</svg>
