<?xml version="1.0" encoding="UTF-8" standalone="no"?>
<!DOCTYPE svg PUBLIC "-//W3C//DTD SVG 1.1//EN" "http://www.w3.org/Graphics/SVG/1.1/DTD/svg11.dtd">
<svg width="100%" height="100%" viewBox="0 0 30 30" version="1.1" xmlns="http://www.w3.org/2000/svg" xmlns:xlink="http://www.w3.org/1999/xlink" xml:space="preserve" style="fill-rule:evenodd;clip-rule:evenodd;stroke-linejoin:round;stroke-miterlimit:2;">
    <g transform="matrix(0.0704784,0,0,0.0704784,13.9428,13.9428)">
        <g id="Calque1">
            <g>
                <g transform="matrix(1,0,0,1,-335,-281.405)">
                    <path d="M511.92,480.38L188.08,480.38C172.264,480.38 158.1,472.2 150.193,458.505C142.287,444.81 142.287,428.45 150.193,414.755L312.113,134.305C320.019,120.61 334.187,112.43 350,112.43C365.816,112.43 379.98,120.61 387.887,134.305L549.807,414.755C557.713,428.45 557.713,444.81 549.807,458.505C541.897,472.204 527.737,480.38 511.92,480.38ZM331.06,145.25L169.14,425.7C165.187,432.548 165.187,440.727 169.14,447.575C173.093,454.423 180.175,458.513 188.085,458.513L511.925,458.513C519.831,458.513 526.917,454.423 530.87,447.575C534.823,440.727 534.823,432.548 530.87,425.7L368.95,145.25C364.997,138.402 357.915,134.312 350.005,134.312C342.099,134.312 335.013,138.398 331.06,145.25Z" style="fill-rule:nonzero;"/>
                </g>
                <g transform="matrix(1,0,0,1,-335,-281.405)">
                    <path d="M350,366.94C343.961,366.94 339.062,362.042 339.062,356.002L339.062,247.702C339.062,241.663 343.96,236.764 350,236.764C356.04,236.764 360.938,241.662 360.938,247.702L360.938,356.002C360.938,362.041 356.04,366.94 350,366.94Z" style="fill-rule:nonzero;"/>
                </g>
                <g transform="matrix(1,0,0,1,-335,-281.405)">
                    <path d="M362.94,401.11C362.94,408.255 357.147,414.048 350.002,414.048C342.857,414.048 337.064,408.255 337.064,401.11C337.064,393.965 342.857,388.172 350.002,388.172C357.147,388.172 362.94,393.965 362.94,401.11" style="fill-rule:nonzero;"/>
                </g>
            </g>
        </g>
    </g>
</svg>
