<?xml version="1.0" encoding="UTF-8" standalone="no"?>
<!DOCTYPE svg PUBLIC "-//W3C//DTD SVG 1.1//EN" "http://www.w3.org/Graphics/SVG/1.1/DTD/svg11.dtd">
<svg width="100%" height="100%" viewBox="0 0 30 30" version="1.1" xmlns="http://www.w3.org/2000/svg" xmlns:xlink="http://www.w3.org/1999/xlink" xml:space="preserve" style="fill-rule:evenodd;clip-rule:evenodd;stroke-linejoin:round;stroke-miterlimit:2;">
    <g transform="matrix(3.38239e-18,0.0552386,-0.0552386,3.38239e-18,30.4669,-4.33346)">
        <path d="M350,542.5C340.723,542.488 331.824,538.797 325.262,532.238C318.703,525.676 315.012,516.777 315,507.5L315,404.25C315.043,390.371 310.906,376.801 303.125,365.312C295.344,353.82 284.281,344.937 271.379,339.828C245.512,329.484 223.336,311.625 207.719,288.555C192.098,265.485 183.75,238.266 183.75,210.407L183.75,136.985L164.75,155.985C155.906,164.829 143.02,168.282 130.941,165.044C118.863,161.809 109.429,152.372 106.191,140.294C102.957,128.216 106.41,115.329 115.25,106.489L194,27.739C200.57,21.184 209.473,17.505 218.75,17.505C228.027,17.505 236.93,21.184 243.5,27.739L322.25,106.489C331.089,115.328 334.543,128.216 331.308,140.294C328.07,152.372 318.636,161.81 306.558,165.044C294.48,168.282 281.593,164.829 272.749,155.985L253.749,136.985L253.749,210.407C253.702,224.282 257.843,237.852 265.624,249.345C273.402,260.837 284.468,269.716 297.37,274.829C317.569,282.903 335.593,295.602 349.999,311.899C364.405,295.602 382.429,282.907 402.628,274.829C415.53,269.72 426.597,260.837 434.374,249.345C442.155,237.853 446.296,224.286 446.249,210.407L446.249,136.985L427.249,155.985C418.405,164.829 405.519,168.282 393.44,165.044C381.362,161.809 371.928,152.372 368.69,140.294C365.456,128.216 368.909,115.329 377.749,106.489L456.499,27.739C463.069,21.184 471.972,17.505 481.249,17.505C490.526,17.505 499.429,21.184 505.999,27.739L584.749,106.489C593.589,115.328 597.042,128.216 593.807,140.294C590.569,152.372 581.135,161.81 569.057,165.044C556.979,168.282 544.092,164.829 535.248,155.985L516.248,136.985L516.248,210.407C516.248,238.266 507.901,265.485 492.279,288.555C476.662,311.625 454.486,329.485 428.619,339.828C415.717,344.937 404.654,353.82 396.873,365.312C389.092,376.804 384.955,390.371 384.998,404.25L384.998,507.5C384.987,516.777 381.295,525.676 374.736,532.238C368.174,538.797 359.275,542.488 349.998,542.5L350,542.5ZM192.5,107.11C194.82,107.11 197.047,108.032 198.688,109.673C200.328,111.313 201.25,113.54 201.25,115.86L201.25,210.407C201.25,234.766 208.551,258.571 222.211,278.743C235.867,298.915 255.258,314.532 277.879,323.579C294.035,329.977 307.887,341.099 317.633,355.489C327.375,369.88 332.555,386.872 332.5,404.251L332.5,507.501C332.5,513.755 335.836,519.532 341.25,522.657C346.664,525.782 353.336,525.782 358.75,522.657C364.164,519.532 367.5,513.755 367.5,507.501L367.5,404.251C367.441,386.872 372.625,369.88 382.367,355.489C392.109,341.098 405.965,329.977 422.121,323.575C444.742,314.532 464.133,298.915 477.789,278.743C491.449,258.571 498.75,234.766 498.75,210.407L498.75,115.86C498.75,112.321 500.883,109.13 504.152,107.774C507.422,106.423 511.184,107.169 513.688,109.673L547.626,143.611C552.047,148.032 558.493,149.759 564.532,148.138C570.571,146.521 575.286,141.806 576.907,135.763C578.524,129.724 576.797,123.283 572.375,118.861L493.625,40.111C490.34,36.834 485.891,34.994 481.25,34.994C476.61,34.994 472.161,36.833 468.875,40.111L390.125,118.861C385.703,123.283 383.977,129.724 385.594,135.763C387.215,141.806 391.93,146.521 397.969,148.138C404.008,149.759 410.453,148.032 414.875,143.611L448.813,109.673C451.317,107.169 455.079,106.419 458.348,107.774C461.618,109.13 463.751,112.321 463.751,115.86L463.751,210.407C463.809,227.786 458.626,244.778 448.884,259.169C439.141,273.56 425.286,284.681 409.13,291.079C388.427,299.36 370.396,313.165 357.001,330.993C355.348,333.192 352.754,334.489 350.001,334.485C347.247,334.489 344.653,333.192 343.001,330.993C329.606,313.165 311.575,299.356 290.868,291.079C274.712,284.677 260.86,273.556 251.118,259.165C241.371,244.778 236.192,227.782 236.251,210.407L236.251,115.86C236.251,112.321 238.383,109.13 241.653,107.774C244.922,106.423 248.684,107.169 251.188,109.673L285.126,143.611C289.548,148.032 295.993,149.759 302.032,148.138C308.071,146.521 312.786,141.806 314.407,135.763C316.024,129.724 314.298,123.283 309.876,118.861L231.126,40.111C227.841,36.834 223.392,34.994 218.751,34.994C214.11,34.994 209.661,36.833 206.376,40.111L127.626,118.861C123.204,123.283 121.478,129.724 123.095,135.763C124.716,141.806 129.431,146.521 135.47,148.138C141.509,149.759 147.954,148.032 152.376,143.611L186.314,109.673C187.954,108.032 190.181,107.11 192.501,107.11L192.5,107.11Z" style="fill-rule:nonzero;"/>
    </g>
</svg>
