<?xml version="1.0" encoding="UTF-8" standalone="no"?>
<!DOCTYPE svg PUBLIC "-//W3C//DTD SVG 1.1//EN" "http://www.w3.org/Graphics/SVG/1.1/DTD/svg11.dtd">
<svg width="100%" height="100%" viewBox="0 0 30 30" version="1.1" xmlns="http://www.w3.org/2000/svg" xmlns:xlink="http://www.w3.org/1999/xlink" xml:space="preserve" style="fill-rule:evenodd;clip-rule:evenodd;stroke-linejoin:round;stroke-miterlimit:2;">
    <g transform="matrix(0.0646511,0,0,0.0646511,14.0302,14.0302)">
        <g transform="matrix(1,0,0,1,-335.281,-264.721)">
            <path d="M371.28,258.16C365.678,263.199 357.839,266 349.999,266C342.159,266 334.878,263.199 328.718,258.16C323.116,253.68 318.077,247.519 316.398,239.68C304.636,249.2 297.359,263.758 297.359,280C297.359,308.559 320.879,332.641 350,332.641C379.121,332.641 402.078,309.121 402.078,280C402.078,263.762 394.797,249.199 383.039,239.68C381.359,246.961 377.441,253.68 371.281,258.16L371.28,258.16Z" style="fill-rule:nonzero;"/>
        </g>
        <g transform="matrix(1,0,0,1,-335.281,-264.721)">
            <path d="M570.64,272.16C565.601,267.68 446.88,160.72 350,160.72C253.12,160.72 134.4,267.12 129.36,271.6C127.122,273.842 126.001,277.202 126.001,280.002C126.001,282.803 127.122,286.163 129.923,287.842C134.962,292.323 253.123,398.722 350.563,398.722C447.442,398.722 566.163,292.322 571.203,287.842C573.441,286.162 574.562,282.803 574.562,280.002C574.558,277.202 572.878,273.842 570.64,272.163L570.64,272.16ZM153.44,280C170.799,265.441 210.561,234.078 255.92,210.559C241.361,230.161 232.959,254.239 232.959,280C232.959,305.761 241.357,329.84 255.92,349.441C210.557,325.921 170.799,294.558 153.44,280ZM350,375.762C297.359,375.762 254.238,332.641 254.238,280C254.238,227.359 297.359,184.238 350,184.238C402.641,184.238 445.762,227.359 445.762,280C445.762,332.641 402.641,375.762 350,375.762ZM444.078,349.442C458.637,329.84 467.039,305.762 467.039,280.001C467.039,254.24 458.641,230.161 444.078,210.56C488.879,233.521 529.199,264.88 546.558,280.001C529.199,294.56 489.441,325.923 444.078,349.442Z" style="fill-rule:nonzero;"/>
        </g>
    </g>
</svg>
