<?xml version="1.0" encoding="UTF-8" standalone="no"?>
<!DOCTYPE svg PUBLIC "-//W3C//DTD SVG 1.1//EN" "http://www.w3.org/Graphics/SVG/1.1/DTD/svg11.dtd">
<svg width="100%" height="100%" viewBox="0 0 30 30" version="1.1" xmlns="http://www.w3.org/2000/svg" xmlns:xlink="http://www.w3.org/1999/xlink" xml:space="preserve" style="fill-rule:evenodd;clip-rule:evenodd;stroke-linejoin:round;stroke-miterlimit:2;">
    <g transform="matrix(0.0647362,0,0,0.0647362,14.029,14.029)">
        <g transform="matrix(1,0,0,1,-332.823,-264.982)">
            <path d="M501.25,429.02C502.059,429.43 502.922,429.625 503.773,429.625C505.82,429.625 507.789,428.504 508.773,426.555C510.172,423.797 509.066,420.426 506.309,419.032C503.652,417.684 500.977,416.458 498.301,415.344C495.461,414.157 492.172,415.512 490.984,418.368C489.797,421.223 491.152,424.5 494.008,425.684C496.426,426.688 498.844,427.801 501.25,429.02L501.25,429.02Z" style="fill-rule:nonzero;"/>
        </g>
        <g transform="matrix(1,0,0,1,-332.823,-264.982)">
            <path d="M558.97,469.3C556.029,464.402 552.822,459.691 549.443,455.3C547.56,452.855 544.04,452.394 541.591,454.277C539.142,456.159 538.681,459.679 540.568,462.128C543.685,466.179 546.646,470.534 549.372,475.066C550.423,476.812 552.275,477.781 554.177,477.781C555.158,477.781 556.154,477.523 557.056,476.98C559.704,475.39 560.564,471.953 558.97,469.301L558.97,469.3Z" style="fill-rule:nonzero;"/>
        </g>
        <g transform="matrix(1,0,0,1,-332.823,-264.982)">
            <path d="M515.43,430.68C513.594,433.172 514.129,436.676 516.617,438.512C520.742,441.551 524.735,444.926 528.473,448.551C529.562,449.606 530.965,450.129 532.371,450.129C533.836,450.129 535.293,449.559 536.394,448.426C538.547,446.207 538.488,442.66 536.269,440.508C532.168,436.535 527.793,432.828 523.265,429.492C520.773,427.664 517.261,428.191 515.429,430.679L515.43,430.68Z" style="fill-rule:nonzero;"/>
        </g>
        <g transform="matrix(1,0,0,1,-332.823,-264.982)">
            <path d="M561,498.88C561.863,501.091 563.981,502.446 566.219,502.446C566.895,502.446 567.586,502.321 568.254,502.06C571.137,500.935 572.559,497.685 571.434,494.806C570.363,492.067 569.242,489.4 568.082,486.806C566.817,483.982 563.5,482.716 560.68,483.985C557.86,485.251 556.594,488.567 557.86,491.388C558.953,493.817 560,496.314 561,498.88L561,498.88Z" style="fill-rule:nonzero;"/>
        </g>
        <g transform="matrix(1,0,0,1,-332.823,-264.982)">
            <path d="M436.93,368.86C439.059,366.618 438.969,363.075 436.723,360.946C432.793,357.215 430.348,355.102 430.348,355.102C428.004,353.083 424.473,353.34 422.45,355.688C420.43,358.028 420.688,361.563 423.028,363.583C423.082,363.633 425.368,365.606 429.012,369.067C430.094,370.094 431.481,370.606 432.868,370.606C434.348,370.602 435.829,370.02 436.93,368.86L436.93,368.86Z" style="fill-rule:nonzero;"/>
        </g>
        <g transform="matrix(1,0,0,1,-332.823,-264.982)">
            <path d="M472.66,493.46C473.945,493.46 475.238,493.019 476.293,492.116C481.348,487.8 485.34,482.921 488.16,477.608C489.609,474.878 488.57,471.487 485.84,470.038C483.105,468.593 479.718,469.628 478.269,472.358C476.113,476.421 473,480.202 469.023,483.6C466.672,485.608 466.394,489.143 468.402,491.495C469.508,492.792 471.078,493.46 472.66,493.46L472.66,493.46Z" style="fill-rule:nonzero;"/>
        </g>
        <g transform="matrix(1,0,0,1,-332.823,-264.982)">
            <path d="M477.89,427.22C478.765,427.22 479.652,427.013 480.48,426.583C483.222,425.146 484.281,421.767 482.847,419.025C480.324,414.2 477.316,409.185 473.906,404.127C472.179,401.564 468.699,400.884 466.132,402.607C463.566,404.334 462.89,407.818 464.613,410.381C467.792,415.099 470.585,419.756 472.921,424.213C473.921,426.131 475.871,427.22 477.89,427.22L477.89,427.22Z" style="fill-rule:nonzero;"/>
        </g>
        <g transform="matrix(1,0,0,1,-332.823,-264.982)">
            <path d="M417.82,496.09C418.75,496.676 419.785,496.953 420.804,496.953C422.66,496.953 424.48,496.027 425.547,494.344C427.199,491.727 426.418,488.27 423.801,486.617C419.676,484.016 416.195,480.66 413.457,476.648C411.71,474.094 408.23,473.441 405.675,475.184C403.121,476.93 402.464,480.41 404.21,482.965C407.824,488.25 412.398,492.66 417.819,496.09L417.82,496.09Z" style="fill-rule:nonzero;"/>
        </g>
        <g transform="matrix(1,0,0,1,-332.823,-264.982)">
            <path d="M403.11,439.82C400.102,439.058 397.063,440.867 396.301,443.867C395.477,447.109 395.059,450.508 395.059,453.961C395.059,456.898 395.364,459.918 395.958,462.941C396.481,465.609 398.825,467.457 401.446,467.457C401.805,467.457 402.169,467.426 402.536,467.352C405.571,466.754 407.544,463.812 406.946,460.777C406.493,458.465 406.258,456.172 406.258,453.961C406.258,451.438 406.559,448.969 407.157,446.629C407.922,443.629 406.11,440.582 403.11,439.82L403.11,439.82Z" style="fill-rule:nonzero;"/>
        </g>
        <g transform="matrix(1,0,0,1,-332.823,-264.982)">
            <path d="M493.39,455.95C493.39,450.325 492.48,444.325 490.687,438.118C489.824,435.145 486.71,433.442 483.753,434.29C480.781,435.149 479.07,438.255 479.925,441.224C481.429,446.423 482.191,451.376 482.191,456.185C482.191,459.278 484.699,461.665 487.792,461.665C490.882,461.665 493.39,459.04 493.39,455.95L493.39,455.95Z" style="fill-rule:nonzero;"/>
        </g>
        <g transform="matrix(1,0,0,1,-332.823,-264.982)">
            <path d="M461.91,388.04C458.433,383.774 454.656,379.427 450.687,375.126C448.589,372.86 445.05,372.712 442.773,374.81C440.5,376.907 440.359,380.45 442.456,382.724C446.269,386.856 449.894,391.028 453.226,395.119C454.332,396.478 455.945,397.181 457.57,397.181C458.816,397.181 460.066,396.767 461.105,395.923C463.504,393.966 463.863,390.439 461.91,388.041L461.91,388.04Z" style="fill-rule:nonzero;"/>
        </g>
        <g transform="matrix(1,0,0,1,-332.823,-264.982)">
            <path d="M430.27,416.76C428.954,413.967 425.618,412.764 422.817,414.084C416.872,416.889 411.719,420.424 407.512,424.596C405.313,426.772 405.297,430.319 407.473,432.514C408.571,433.62 410.012,434.174 411.449,434.174C412.875,434.174 414.297,433.635 415.391,432.553C418.696,429.28 422.801,426.475 427.594,424.213C430.391,422.897 431.59,419.561 430.27,416.76L430.27,416.76Z" style="fill-rule:nonzero;"/>
        </g>
        <g transform="matrix(1,0,0,1,-332.823,-264.982)">
            <path d="M438.32,503.46C440.777,503.796 443.273,503.968 445.742,503.968C449.668,503.964 453.465,503.538 457.023,502.694C460.035,501.983 461.894,498.968 461.183,495.956C460.472,492.948 457.449,491.066 454.445,491.796C449.992,492.851 444.863,493.05 439.843,492.362C436.765,491.937 433.952,494.081 433.53,497.148C433.112,500.214 435.257,503.038 438.319,503.46L438.32,503.46Z" style="fill-rule:nonzero;"/>
        </g>
        <g transform="matrix(1,0,0,1,-332.823,-264.982)">
            <path d="M444.06,419.12C444.345,419.12 444.638,419.097 444.931,419.054C447.478,418.655 450.111,418.386 452.751,418.241C455.841,418.077 458.208,415.436 458.044,412.35C457.88,409.261 455.232,406.874 452.154,407.057C449.134,407.218 446.123,407.53 443.208,407.983C440.15,408.46 438.06,411.323 438.537,414.378C438.966,417.147 441.349,419.12 444.06,419.12L444.06,419.12Z" style="fill-rule:nonzero;"/>
        </g>
        <g transform="matrix(1,0,0,1,-332.823,-264.982)">
            <path d="M148.36,189.23C159.954,189.23 169.645,181.121 172.192,170.292L186.504,170.292C187.738,179.819 191.93,189.026 199.133,196.39C194.586,213.175 194.371,231.702 198.899,250.691C194.192,257.324 189.668,264.129 185.649,270.843C175.532,287.749 170.344,301.093 169.794,311.636C168.766,331.202 175.434,349.808 188.564,364.027C201.658,378.207 219.611,386.312 239.111,386.843C239.786,386.863 240.458,386.87 241.134,386.87C265.364,386.87 287.282,374.901 301.032,356.472C310.825,358.918 320.438,360.199 329.751,360.195C354.29,360.195 376.743,351.695 395.267,335.363L400.849,340.945C401.943,342.039 403.376,342.586 404.81,342.586C406.244,342.586 407.677,342.039 408.771,340.945C410.958,338.758 410.958,335.215 408.771,333.027L403.306,327.562C425.677,303.046 433.904,268.523 425.951,231.894C443.924,217.687 455.334,195.57 454.67,171.285C454.139,151.785 446.033,133.832 431.854,120.738C417.635,107.609 399.002,100.953 379.463,101.968C368.928,102.519 355.584,107.703 338.67,117.823C331.99,121.819 325.232,126.315 318.635,130.991C299.623,126.663 280.912,127.007 263.994,131.644C256.892,124.675 248.068,120.519 238.892,119.113L238.888,104.129C249.322,101.3 257.056,91.848 257.056,80.531C257.056,67.004 246.048,55.996 232.517,55.996C218.986,55.996 207.978,67.004 207.978,80.535C207.978,92.414 216.463,102.336 227.689,104.59L227.689,118.738C217.392,119.679 207.349,124.073 199.482,131.941C191.884,139.538 187.552,149.168 186.412,159.093L172.197,159.093C169.65,148.265 159.959,140.155 148.365,140.155C134.834,140.155 123.826,151.163 123.826,164.694C123.818,178.221 134.83,189.229 148.361,189.229L148.36,189.23ZM239.419,375.65C222.962,375.201 207.825,368.373 196.794,356.427C185.732,344.447 180.114,328.747 180.978,312.22C181.427,303.669 186.232,291.681 195.255,276.595C211.841,248.88 238.091,218.736 248.47,207.204C267.732,232.454 306.005,288.544 304.607,315.324C302.818,349.527 273.455,376.629 239.419,375.648L239.419,375.65ZM316.403,222.38L290.196,248.587C283.009,236.61 275.415,225.349 268.977,216.263L284.075,201.165C293.165,207.599 304.43,215.192 316.403,222.38ZM315.735,311.423C314.833,296.571 306.407,277.251 296.001,258.607C296.013,258.595 296.028,258.591 296.04,258.584L326.395,228.225C326.407,228.213 326.407,228.201 326.419,228.189C345.071,238.603 364.396,247.013 379.247,247.908L315.735,311.423ZM392.383,322.868C369.942,345.306 339.934,353.583 307.281,346.501C310.144,341.067 312.383,335.267 313.84,329.153L396.981,246.008C403.676,244.414 410.004,241.891 415.876,238.621C421.774,271.426 413.364,301.887 392.384,322.867L392.383,322.868ZM344.418,127.438C359.516,118.411 371.5,113.606 380.043,113.161L380.047,113.161C396.539,112.309 412.27,117.911 424.254,128.973C436.199,140.004 443.027,155.141 443.477,171.598C444.411,205.754 417.352,234.996 383.153,236.786C356.106,238.122 300.278,199.911 275.033,180.653C286.556,170.274 316.689,144.036 344.42,127.438L344.418,127.438ZM306.25,140.114C282.652,158.091 263.645,175.856 262.516,176.915C261.329,178.028 260.688,179.602 260.754,181.231C260.825,182.856 261.594,184.376 262.868,185.384C263.602,185.966 268.036,189.462 274.888,194.513L262.337,207.064C257.282,200.208 253.794,195.783 253.208,195.048C252.2,193.774 250.68,193.001 249.055,192.934C247.423,192.856 245.852,193.509 244.739,194.696C243.68,195.825 225.93,214.817 207.962,238.399C203.778,209.973 211.329,183.465 229.372,164.544C248.181,144.817 276.313,136.06 306.251,140.114L306.25,140.114ZM219.176,80.536C219.176,73.18 225.16,67.196 232.516,67.196C239.872,67.196 245.856,73.18 245.856,80.536C245.856,87.891 239.872,93.876 232.516,93.876C225.16,93.876 219.176,87.892 219.176,80.536ZM207.399,139.86C219.422,127.84 238.11,126.587 251.606,135.954C240.188,140.809 229.876,147.786 221.266,156.813C213.637,164.813 207.696,173.993 203.426,183.989C194.121,170.501 195.403,151.856 207.399,139.86L207.399,139.86ZM148.36,151.356C155.716,151.356 161.7,157.34 161.7,164.696C161.7,172.052 155.716,178.036 148.36,178.036C141.004,178.036 135.02,172.052 135.02,164.696C135.02,157.337 141.004,151.356 148.36,151.356Z" style="fill-rule:nonzero;"/>
        </g>
    </g>
</svg>
