<?xml version="1.0" encoding="UTF-8" standalone="no"?>
<!DOCTYPE svg PUBLIC "-//W3C//DTD SVG 1.1//EN" "http://www.w3.org/Graphics/SVG/1.1/DTD/svg11.dtd">
<svg width="100%" height="100%" viewBox="0 0 30 30" version="1.1" xmlns="http://www.w3.org/2000/svg" xmlns:xlink="http://www.w3.org/1999/xlink" xml:space="preserve" style="fill-rule:evenodd;clip-rule:evenodd;stroke-linejoin:round;stroke-miterlimit:2;">
    <g transform="matrix(0.0575394,0,0,0.0575394,14.1369,14.1369)">
        <g transform="matrix(1,0,0,1,-334.999,-265.009)">
            <path d="M136.16,34.664C131.883,38.875 129.316,45.023 138.269,81.867C143.629,103.929 185.472,226.997 199.73,262.347C228.75,334.269 247.312,331.894 257.949,333.277C263.145,333.937 268.195,332.718 272.558,329.734C284.456,321.621 288.421,319.25 293.019,316.511C294.625,315.546 296.351,314.523 298.508,313.191C311.36,334.265 327.242,366.957 342.653,398.699C363.399,441.41 384.848,485.578 401.985,508.429C412.883,522.956 424.676,527.222 432.645,528.253C447.911,530.214 463.684,522.038 472.848,507.417C482.156,492.593 482.461,475.011 473.664,461.538C455.559,433.768 190.454,84.718 150.714,36.818C145.199,30.15 138.624,32.24 136.163,34.669L136.16,34.664ZM456.64,497.234C451.425,505.539 442.964,510.261 435.085,509.254C428.897,508.457 422.741,504.203 417.288,496.934C401.257,475.555 380.21,432.219 359.866,390.334C341.272,352.057 323.718,315.904 309.354,294.67C307.752,292.303 305.272,290.877 302.647,290.537C300.487,290.264 298.213,290.717 296.241,291.998C289.819,296.135 274.143,305.482 261.761,313.939C261.183,314.318 260.858,314.365 260.37,314.298C253.808,317.685 253.394,312.713 242.315,297.677C224.467,273.462 174.1,131.237 159.538,84.527C153.878,66.418 159.901,76.402 164.331,82.098C212.194,143.676 440.031,445.028 457.621,471.988C463.223,480.523 460.785,490.625 456.641,497.238L456.64,497.234Z" style="fill-rule:nonzero;"/>
        </g>
        <g transform="matrix(1,0,0,1,-334.999,-265.009)">
            <path d="M599.3,129.07C595.628,125.277 589.566,125.195 585.78,128.867C561.358,152.562 538.573,175.656 520.288,194.219C515.608,198.973 511.315,203.309 507.448,207.223L489.401,189.168L565.639,115.191C569.44,111.511 569.518,105.453 565.842,101.66C562.17,97.863 556.119,97.773 552.319,101.453L475.881,175.633L458.885,158.633L535.588,84.219C539.373,80.539 539.463,74.484 535.783,70.696C532.112,66.899 526.049,66.817 522.263,70.489L445.361,145.102L428.818,128.543L511.923,47.914C515.716,44.23 515.798,38.172 512.127,34.383C508.447,30.586 502.392,30.504 498.604,34.176L402.967,126.969C378.529,150.684 380.42,185.516 407.049,217.633L352.654,271.195C348.857,274.874 348.763,280.933 352.447,284.718C353.923,286.241 355.79,287.171 357.732,287.495C360.626,287.976 363.701,287.132 365.974,284.925L420.412,231.316C431.119,240.23 443.799,246.132 457.107,248.347C458.826,248.632 460.552,248.862 462.287,249.019C479.662,250.636 495.58,245.776 505.978,235.691C512.618,229.261 522.009,219.718 533.912,207.648C552.158,189.152 574.842,166.136 599.111,142.593C602.884,138.917 602.978,132.858 599.298,129.07L599.3,129.07ZM464.04,229.98C450.618,228.726 437.716,222.374 427.724,212.082C408.173,191.918 394.853,163.105 415.115,141.902L493.888,220.746C493.462,221.172 493.044,221.57 492.626,221.976C486.357,228.062 475.665,231.058 464.04,229.98L464.04,229.98Z" style="fill-rule:nonzero;"/>
        </g>
        <g transform="matrix(1,0,0,1,-334.999,-265.009)">
            <path d="M309.42,358.36C305.467,354.848 299.424,355.208 295.912,359.165C257.412,402.47 187.552,478.985 163.982,499.895C152.259,510.29 133.798,506.09 123.92,495.66C113.584,484.734 115.147,470.902 128.205,457.707C161.357,424.207 210.189,385.848 247.025,358.066C251.248,354.89 252.088,348.883 248.908,344.664C245.728,340.442 239.728,339.602 235.506,342.778C198.197,370.919 148.623,409.86 114.606,444.238C89.825,469.3 96.657,494.679 110.028,508.8C117.594,516.78 128.301,522.515 139.669,524.405C152.325,526.506 165.798,523.834 176.673,514.198C203.911,490.038 282.303,403.248 310.203,371.848C313.73,367.902 313.371,361.855 309.422,358.348L309.42,358.36Z" style="fill-rule:nonzero;"/>
        </g>
    </g>
</svg>
