<?xml version="1.0" encoding="UTF-8" standalone="no"?>
<!DOCTYPE svg PUBLIC "-//W3C//DTD SVG 1.1//EN" "http://www.w3.org/Graphics/SVG/1.1/DTD/svg11.dtd">
<svg width="100%" height="100%" viewBox="0 0 30 30" version="1.1" xmlns="http://www.w3.org/2000/svg" xmlns:xlink="http://www.w3.org/1999/xlink" xml:space="preserve" style="fill-rule:evenodd;clip-rule:evenodd;stroke-linejoin:round;stroke-miterlimit:2;">
    <g transform="matrix(0.0483333,0,0,0.0483333,14.275,1.46667)">
        <g transform="matrix(1,0,0,1,-335,0)">
            <path d="M110,470L590,470L590,130L110,130L110,470ZM600,490L100,490C94.469,490 90,485.52 90,480L90,120C90,114.481 94.469,110 100,110L600,110C605.531,110 610,114.481 610,120L610,480C610,485.52 605.531,490 600,490Z"/>
        </g>
        <g transform="matrix(1,0,0,1,-335,0)">
            <path d="M110,540L150,540L150,490L110,490L110,540ZM160,560L100,560C94.469,560 90,555.52 90,550L90,480C90,474.481 94.469,470 100,470L160,470C165.531,470 170,474.481 170,480L170,550C170,555.52 165.531,560 160,560Z"/>
        </g>
        <g transform="matrix(1,0,0,1,-335,0)">
            <path d="M550,540L590,540L590,490L550,490L550,540ZM600,560L540,560C534.469,560 530,555.52 530,550L530,480C530,474.481 534.469,470 540,470L600,470C605.531,470 610,474.481 610,480L610,550C610,555.52 605.531,560 600,560Z"/>
        </g>
        <g transform="matrix(1,0,0,1,-335,0)">
            <path d="M290,470L410,470L410,420C410,386.91 383.09,360 350,360C316.91,360 290,386.91 290,420L290,470ZM420,490L280,490C274.469,490 270,485.52 270,480L270,420C270,375.891 305.891,340 350,340C394.109,340 430,375.891 430,420L430,480C430,485.52 425.531,490 420,490Z"/>
        </g>
        <g transform="matrix(1,0,0,1,-335,0)">
            <path d="M90,110L610,110L610,80L90,80L90,110ZM620,130L80,130C74.469,130 70,125.519 70,120L70,70C70,64.481 74.469,60 80,60L620,60C625.531,60 630,64.481 630,70L630,120C630,125.519 625.531,130 620,130Z"/>
        </g>
        <g transform="matrix(1,0,0,1,-335,0)">
            <path d="M70,60L630,60L630,20L70,20L70,60ZM640,80L60,80C54.469,80 50,75.519 50,70L50,10C50,4.481 54.469,0 60,0L640,0C645.531,0 650,4.481 650,10L650,70C650,75.519 645.531,80 640,80Z"/>
        </g>
        <g transform="matrix(1,0,0,1,-335,0)">
            <path d="M260,180C248.969,180 240,188.969 240,200C240,211.031 248.969,220 260,220L440,220C451.031,220 460,211.031 460,200C460,188.969 451.031,180 440,180L260,180ZM440,240L260,240C237.941,240 220,222.059 220,200C220,177.941 237.941,160 260,160L440,160C462.059,160 480,177.941 480,200C480,222.059 462.059,240 440,240Z"/>
        </g>
        <g transform="matrix(1,0,0,1,-335,0)">
            <path d="M140,290C134.469,290 130,285.52 130,280L130,240C130,234.481 134.469,230 140,230C145.531,230 150,234.481 150,240L150,280C150,285.52 145.531,290 140,290"/>
        </g>
        <g transform="matrix(1,0,0,1,-335,0)">
            <path d="M140,210C134.469,210 130,205.52 130,200L130,160C130,154.481 134.469,150 140,150C145.531,150 150,154.481 150,160L150,200C150,205.52 145.531,210 140,210"/>
        </g>
        <g transform="matrix(1,0,0,1,-335,0)">
            <path d="M140,370C134.469,370 130,365.52 130,360L130,320C130,314.481 134.469,310 140,310C145.531,310 150,314.481 150,320L150,360C150,365.52 145.531,370 140,370"/>
        </g>
        <g transform="matrix(1,0,0,1,-335,0)">
            <path d="M140,450C134.469,450 130,445.52 130,440L130,400C130,394.481 134.469,390 140,390C145.531,390 150,394.481 150,400L150,440C150,445.52 145.531,450 140,450"/>
        </g>
        <g transform="matrix(1,0,0,1,-335,0)">
            <path d="M560,290C554.469,290 550,285.52 550,280L550,240C550,234.481 554.469,230 560,230C565.531,230 570,234.481 570,240L570,280C570,285.52 565.531,290 560,290"/>
        </g>
        <g transform="matrix(1,0,0,1,-335,0)">
            <path d="M560,210C554.469,210 550,205.52 550,200L550,160C550,154.481 554.469,150 560,150C565.531,150 570,154.481 570,160L570,200C570,205.52 565.531,210 560,210"/>
        </g>
        <g transform="matrix(1,0,0,1,-335,0)">
            <path d="M560,370C554.469,370 550,365.52 550,360L550,320C550,314.481 554.469,310 560,310C565.531,310 570,314.481 570,320L570,360C570,365.52 565.531,370 560,370"/>
        </g>
        <g transform="matrix(1,0,0,1,-335,0)">
            <path d="M560,450C554.469,450 550,445.52 550,440L550,400C550,394.481 554.469,390 560,390C565.531,390 570,394.481 570,400L570,440C570,445.52 565.531,450 560,450"/>
        </g>
    </g>
</svg>
