<?xml version="1.0" encoding="UTF-8" standalone="no"?>
<!DOCTYPE svg PUBLIC "-//W3C//DTD SVG 1.1//EN" "http://www.w3.org/Graphics/SVG/1.1/DTD/svg11.dtd">
<svg width="100%" height="100%" viewBox="0 0 30 30" version="1.1" xmlns="http://www.w3.org/2000/svg" xmlns:xlink="http://www.w3.org/1999/xlink" xml:space="preserve" style="fill-rule:evenodd;clip-rule:evenodd;stroke-linejoin:round;stroke-miterlimit:2;">
    <g transform="matrix(0.0584409,0,0,0.0584409,-5.45436,-1.18149)">
        <path d="M175,525L525,525C538.93,525 552.281,519.469 562.117,509.617C571.969,499.781 577.5,486.429 577.5,472.5L577.5,232.73C577.5,217.484 570.887,202.996 559.352,193.019L384.352,41.569C364.629,24.507 335.372,24.507 315.649,41.569L140.649,193.019C129.114,202.996 122.501,217.484 122.501,232.73L122.501,472.5C122.501,486.43 128.032,499.781 137.884,509.617C147.72,519.469 161.072,525 175.001,525L175,525ZM437.5,490L525,490C529.637,490 534.102,488.164 537.371,484.871C540.664,481.602 542.5,477.137 542.5,472.5L542.5,232.73C542.5,227.636 540.297,222.824 536.445,219.5L361.445,68.05C354.883,62.363 345.117,62.363 338.554,68.05L163.554,219.5C159.703,222.824 157.499,227.637 157.499,232.73L157.499,472.5C157.499,477.137 159.335,481.602 162.628,484.871C165.898,488.164 170.363,490 174.999,490L262.499,490L262.499,420C262.499,410.727 266.191,401.816 272.753,395.254C279.316,388.692 288.226,385 297.499,385L402.499,385C411.773,385 420.683,388.691 427.245,395.254C433.807,401.817 437.499,410.727 437.499,420L437.5,490ZM402.5,490L297.5,490L297.5,420L402.5,420L402.5,490Z"/>
    </g>
</svg>
