<?xml version="1.0" encoding="UTF-8" standalone="no"?>
<!DOCTYPE svg PUBLIC "-//W3C//DTD SVG 1.1//EN" "http://www.w3.org/Graphics/SVG/1.1/DTD/svg11.dtd">
<svg width="100%" height="100%" viewBox="0 0 30 30" version="1.1" xmlns="http://www.w3.org/2000/svg" xmlns:xlink="http://www.w3.org/1999/xlink" xml:space="preserve" style="fill-rule:evenodd;clip-rule:evenodd;stroke-linejoin:round;stroke-miterlimit:2;">
    <g transform="matrix(0.06441,0,0,0.06441,14.0338,14.0338)">
        <g transform="matrix(1,0,0,1,-335.076,-265.112)">
            <path d="M350,54.992C346.527,54.992 342.945,55.105 339.473,55.328C259.395,60.48 193.763,127.344 190.173,207.538C188.607,241.026 197.341,273.616 215.263,301.616C215.376,301.729 215.486,301.839 215.486,302.065C216.493,303.522 217.501,305.202 218.286,306.882L300.606,474.432C309.903,493.362 328.829,505.233 349.997,505.233C371.165,505.233 390.095,493.471 399.388,474.432L481.708,306.882C481.931,306.323 482.267,305.76 482.603,305.202L494.365,284.257C495.26,282.577 496.045,281.12 496.717,279.554C505.677,259.281 510.158,237.667 510.158,215.265C510.158,126.788 438.256,54.995 349.998,54.995L350,54.992ZM476.22,270.372C475.884,271.267 475.435,272.165 474.876,273.173L463.114,294.118C462.556,295.012 462.106,295.911 461.657,296.805L379.337,464.355C373.736,475.781 362.763,482.613 350.107,482.613C337.337,482.613 326.474,475.781 320.877,464.355L238.334,296.805C236.99,294.118 235.533,291.653 233.854,289.188C218.51,265.11 211.12,237.219 212.35,208.434C215.486,139.442 271.936,81.984 340.7,77.614C343.723,77.391 346.86,77.278 349.883,77.278C425.821,77.278 487.643,139.102 487.643,215.038C487.757,234.304 483.835,252.893 476.217,270.366L476.22,270.372Z" style="fill-rule:nonzero;"/>
        </g>
        <g transform="matrix(1,0,0,1,-335.076,-265.112)">
            <path d="M350,138.99C307.105,138.99 272.273,173.822 272.273,216.717C272.273,259.615 307.105,294.557 350,294.557C392.895,294.557 427.727,259.725 427.727,216.83C427.727,173.935 392.895,138.99 350,138.99ZM350,272.16C319.426,272.16 294.672,247.297 294.672,216.832C294.672,186.367 319.535,161.504 350,161.504C380.574,161.504 405.328,186.367 405.328,216.832C405.328,247.297 380.574,272.16 350,272.16Z" style="fill-rule:nonzero;"/>
        </g>
    </g>
</svg>
