<?xml version="1.0" encoding="UTF-8" standalone="no"?>
<!DOCTYPE svg PUBLIC "-//W3C//DTD SVG 1.1//EN" "http://www.w3.org/Graphics/SVG/1.1/DTD/svg11.dtd">
<svg width="100%" height="100%" viewBox="0 0 30 30" version="1.1" xmlns="http://www.w3.org/2000/svg" xmlns:xlink="http://www.w3.org/1999/xlink" xml:space="preserve" style="fill-rule:evenodd;clip-rule:evenodd;stroke-linejoin:round;stroke-miterlimit:2;">
    <g transform="matrix(0.052597,0,0,0.052597,14.211,0.27591)">
        <g transform="matrix(1,0,0,1,-335.022,0)">
            <path d="M436.07,383.08C395.472,383.139 355.941,370.08 323.36,345.853L301.645,367.568L301.649,367.568C299.911,369.209 297.196,369.209 295.461,367.568L262.434,334.541C260.727,332.834 260.727,330.064 262.434,328.354L284.149,306.647C255.149,267.596 242.282,218.889 248.208,170.617C254.138,122.34 278.407,78.191 315.993,47.317C353.575,16.442 401.595,1.208 450.103,4.77C498.615,8.332 543.892,30.415 576.563,66.446C609.235,102.477 626.797,149.696 625.61,198.326C624.427,246.947 604.583,293.256 570.192,327.645C552.579,345.251 531.665,359.211 508.649,368.723C485.633,378.235 460.965,383.114 436.063,383.078L436.07,383.08ZM322.97,335.685C323.939,335.685 324.884,336.009 325.65,336.607C361.97,364.728 407.638,377.962 453.37,373.611C499.097,369.259 541.452,347.654 571.82,313.185C602.187,278.716 618.281,233.974 616.828,188.065C615.379,142.151 596.496,98.514 564.016,66.025C531.536,33.545 487.903,14.654 441.996,13.197C396.082,11.74 351.34,27.826 316.866,58.185C282.393,88.548 260.78,130.9 256.425,176.625C252.065,222.352 265.292,268.023 293.413,304.345C294.764,306.087 294.604,308.568 293.042,310.122L271.722,331.438L298.562,358.278L319.882,336.958L319.886,336.962C320.702,336.138 321.815,335.677 322.979,335.677L322.97,335.685Z" style="fill-rule:nonzero;"/>
        </g>
        <g transform="matrix(1,0,0,1,-335.022,0)">
            <path d="M436.27,345.79C395.926,345.86 357.215,329.852 328.7,301.306C300.157,272.79 284.118,234.099 284.114,193.756C284.11,153.408 300.141,114.713 328.676,86.196C357.215,57.673 395.914,41.661 436.266,41.684C476.735,41.469 515.621,57.391 544.316,85.93C573.011,114.469 589.144,153.27 589.144,193.74C589.144,234.21 573.011,273.01 544.316,301.55C515.625,330.089 476.738,346.015 436.266,345.796L436.27,345.79ZM334.89,295.122C361.773,321.977 398.222,337.056 436.22,337.044C474.22,337.032 510.658,321.927 537.52,295.052C564.383,268.181 579.477,231.736 579.477,193.732C579.477,155.728 564.383,119.291 537.52,92.412C510.653,65.537 474.215,50.435 436.22,50.424C398.22,50.408 361.771,65.49 334.89,92.346C308.042,119.256 292.964,155.717 292.964,193.726C292.964,231.742 308.042,268.203 334.89,295.116L334.89,295.122Z" style="fill-rule:nonzero;"/>
        </g>
        <g transform="matrix(1,0,0,1,-335.022,0)">
            <path d="M129.89,555.62C114.812,555.604 100.39,549.468 89.929,538.612C79.468,527.757 73.867,513.116 74.413,498.05C74.956,482.984 81.6,468.784 92.819,458.714L251.049,316.624C252.779,315.069 255.42,315.14 257.065,316.784L313.213,372.936C314.857,374.581 314.927,377.221 313.373,378.952L171.283,537.182C161.131,548.588 146.701,555.268 131.435,555.623L129.888,555.623L129.89,555.62ZM253.81,325.9L98.66,465.23C89.086,473.812 83.469,485.957 83.117,498.812C82.769,511.664 87.723,524.097 96.816,533.187C105.909,542.277 118.343,547.226 131.199,546.875C144.054,546.582 156.215,540.961 164.769,531.355L304.089,376.195L253.81,325.9Z" style="fill-rule:nonzero;"/>
        </g>
    </g>
</svg>
