<?xml version="1.0" encoding="UTF-8" standalone="no"?>
<!DOCTYPE svg PUBLIC "-//W3C//DTD SVG 1.1//EN" "http://www.w3.org/Graphics/SVG/1.1/DTD/svg11.dtd">
<svg width="100%" height="100%" viewBox="0 0 30 30" version="1.1" xmlns="http://www.w3.org/2000/svg" xmlns:xlink="http://www.w3.org/1999/xlink" xml:space="preserve" style="fill-rule:evenodd;clip-rule:evenodd;stroke-linejoin:round;stroke-miterlimit:2;">
    <g transform="matrix(0.0520326,0,0,0.0520326,-16.2194,-16.2316)">
        <path d="M600,494.06C541.641,494.06 494.06,541.404 494.06,600C494.06,658.359 541.404,705.94 600,705.94C658.359,705.94 705.94,658.596 705.94,600C705.706,541.641 658.362,494.3 600,494.06ZM600,677.81C557.109,677.81 522.188,642.888 522.188,599.998C522.188,557.108 557.11,522.186 600,522.186C642.89,522.186 677.812,557.108 677.812,599.998C677.578,642.889 642.89,677.576 600,677.81Z" style="fill-rule:nonzero;"/>
        <path d="M818.2,627.42C815.388,624.608 814.216,620.858 814.45,616.873C814.919,611.248 815.153,605.623 815.153,599.998C815.153,594.373 814.919,588.748 814.45,583.123C814.216,579.139 815.622,575.389 818.2,572.576L851.012,537.888C863.668,524.294 866.012,503.904 856.871,487.732L825.465,433.591C816.09,417.419 797.34,409.45 779.059,413.669L732.653,424.685C728.903,425.622 724.919,424.919 721.637,422.81C712.262,416.482 702.653,410.857 692.34,405.935C688.825,404.294 686.247,401.013 685.309,397.497L671.715,351.794C666.325,333.982 649.918,321.794 631.403,321.56L568.591,321.56C550.075,321.56 533.669,333.748 528.279,351.794L514.685,397.497C513.513,401.247 510.935,404.294 507.42,405.935C497.108,410.857 487.498,416.482 478.123,422.81C474.841,424.919 470.857,425.622 467.107,424.685L420.701,413.669C402.654,409.45 383.904,417.653 374.529,433.591L343.123,487.966C333.982,504.138 336.326,524.528 348.982,538.122L381.794,572.81C384.607,575.622 385.778,579.372 385.544,583.357C385.075,588.982 384.841,594.607 384.841,600.232C384.841,605.857 385.075,611.482 385.544,617.107C385.778,621.091 384.372,624.841 381.794,627.654L348.982,662.342C336.326,675.936 333.982,696.326 343.123,712.498L374.529,766.873C383.904,783.045 402.654,791.014 420.935,786.795L467.341,775.779C471.091,774.841 475.075,775.545 478.357,777.654C487.732,783.982 497.341,789.607 507.654,794.529C511.169,796.17 513.747,799.451 514.919,802.966L528.513,848.669C533.904,866.481 550.31,878.669 568.825,878.903L631.637,878.903C650.153,878.903 666.559,866.715 671.949,848.669L685.543,802.966C686.715,799.216 689.293,796.17 692.574,794.529C702.886,789.607 712.496,783.982 721.871,777.654C725.153,775.545 729.137,774.841 732.887,775.779L779.293,786.795C797.34,791.014 816.09,782.811 825.465,766.873L856.871,712.498C866.012,696.326 863.668,675.936 851.012,662.342L818.2,627.42ZM832.497,697.967L801.091,752.342C798.044,757.733 791.716,760.545 785.622,758.905L739.216,747.889C727.732,745.076 715.544,747.42 705.7,753.982C697.731,759.607 689.059,764.294 680.388,768.513C669.841,773.67 661.872,783.044 658.357,794.294L644.763,839.997C642.888,845.857 637.497,850.075 631.169,850.075L568.357,850.075C562.029,850.075 556.638,846.091 554.763,839.997L541.404,794.528C538.123,783.278 530.154,773.903 519.373,768.747C510.467,764.528 502.029,759.607 494.061,753.981C487.03,749.294 478.827,746.716 470.389,746.716C467.108,746.716 463.827,747.184 460.545,747.888L414.139,758.904C408.045,760.31 401.717,757.732 398.67,752.341L367.264,698.2C364.217,692.81 364.92,686.012 369.139,681.559L401.951,646.871C410.154,638.199 414.139,626.715 413.435,614.762C412.966,609.84 412.966,604.918 412.966,600.231C412.966,595.544 413.201,590.622 413.435,585.7C414.373,573.981 410.154,562.262 401.951,553.591L369.139,518.903C364.92,514.45 363.983,507.653 367.264,502.262L398.67,447.887C401.717,442.497 408.045,439.684 414.139,441.325L460.545,452.341C472.029,455.153 484.217,452.809 494.061,446.247C502.03,440.622 510.702,435.935 519.373,431.716C529.92,426.56 537.889,417.185 541.404,405.935L554.998,360.232C556.873,354.372 562.264,350.154 568.592,350.154L631.404,350.154C637.732,350.154 643.123,354.138 644.998,360.232L658.826,405.701C662.107,416.951 670.076,426.326 680.857,431.482C689.763,435.701 698.201,440.622 706.169,446.248C716.013,452.81 728.2,455.154 739.685,452.342L786.091,441.326C792.185,439.919 798.513,442.498 801.56,447.888L832.966,502.263C836.013,507.654 835.31,514.451 831.091,518.904L798.279,553.592C790.076,562.264 786.091,573.748 786.795,585.701C787.264,590.623 787.264,595.545 787.264,600.232C787.264,604.919 787.03,609.842 786.795,614.763C785.858,626.482 790.076,638.201 798.279,646.872L831.091,681.56C834.841,685.779 835.779,692.576 832.497,697.966L832.497,697.967Z" style="fill-rule:nonzero;"/>
    </g>
</svg>
