<?xml version="1.0" encoding="UTF-8" standalone="no"?>
<!DOCTYPE svg PUBLIC "-//W3C//DTD SVG 1.1//EN" "http://www.w3.org/Graphics/SVG/1.1/DTD/svg11.dtd">
<svg width="100%" height="100%" viewBox="0 0 30 30" version="1.1" xmlns="http://www.w3.org/2000/svg" xmlns:xlink="http://www.w3.org/1999/xlink" xml:space="preserve" style="fill-rule:evenodd;clip-rule:evenodd;stroke-linejoin:round;stroke-miterlimit:2;">
    <g transform="matrix(0.152306,0,0,0.152306,-38.3063,-25.94)">
        <path d="M411.6,196L366.799,196L366.799,190.398C366.799,181.137 359.26,173.597 349.998,173.597C340.736,173.597 333.197,181.137 333.197,190.398L333.197,196L288.392,196C285.302,196 282.79,198.508 282.79,201.602L282.79,358.402C282.79,361.491 285.298,364.003 288.392,364.003L411.592,364.003C414.682,364.003 417.194,361.495 417.194,358.402L417.198,201.602C417.198,198.508 414.69,196 411.6,196L411.6,196ZM338.799,207.199C341.889,207.199 344.401,204.691 344.401,201.597L344.401,190.398C344.401,187.313 346.916,184.797 350.002,184.797C353.088,184.797 355.604,187.312 355.604,190.398L355.604,201.597C355.604,204.687 358.112,207.199 361.205,207.199L372.404,207.199L372.404,218.398L327.603,218.398L327.603,207.199L338.799,207.199ZM405.998,352.799L293.998,352.799L293.998,207.199L316.396,207.199L316.396,224C316.396,227.09 318.904,229.602 321.998,229.602L377.998,229.602C381.087,229.602 383.599,227.094 383.599,224L383.599,207.199L405.997,207.199L405.998,352.799ZM338.799,302.397L310.799,302.397C307.709,302.397 305.197,304.905 305.197,307.999L305.197,335.999C305.197,339.088 307.705,341.6 310.799,341.6L338.799,341.6C341.889,341.6 344.401,339.092 344.401,335.999L344.401,307.999C344.397,304.909 341.889,302.397 338.799,302.397ZM333.197,330.397L316.396,330.397L316.396,313.596L333.197,313.596L333.197,330.397ZM389.197,302.397L361.197,302.397C358.108,302.397 355.596,304.905 355.596,307.999L355.596,335.999C355.596,339.088 358.104,341.6 361.197,341.6L389.197,341.6C392.287,341.6 394.799,339.092 394.799,335.999L394.799,307.999C394.799,304.909 392.291,302.397 389.197,302.397ZM383.6,330.397L366.799,330.397L366.799,313.596L383.6,313.596L383.6,330.397ZM338.799,251.999L310.799,251.999C307.709,251.999 305.197,254.507 305.197,257.601L305.197,285.601C305.197,288.69 307.705,291.202 310.799,291.202L338.799,291.202C341.889,291.202 344.4,288.694 344.4,285.601L344.4,257.601C344.396,254.507 341.889,251.999 338.799,251.999ZM333.197,279.999L316.396,279.999L316.396,263.198L333.197,263.198L333.197,279.999ZM385.24,259.241C387.432,257.05 390.971,257.05 393.158,259.241C395.35,261.432 395.35,264.972 393.158,267.159L376.357,283.96C375.263,285.05 373.83,285.601 372.396,285.601C370.963,285.601 369.529,285.054 368.435,283.96L357.236,272.761C355.045,270.57 355.045,267.031 357.236,264.843C359.428,262.652 362.967,262.652 365.154,264.843L372.397,272.081L385.24,259.241Z" style="fill-rule:nonzero;"/>
    </g>
</svg>
