<?xml version="1.0" encoding="UTF-8" standalone="no"?>
<!DOCTYPE svg PUBLIC "-//W3C//DTD SVG 1.1//EN" "http://www.w3.org/Graphics/SVG/1.1/DTD/svg11.dtd">
<svg width="100%" height="100%" viewBox="0 0 30 30" version="1.1" xmlns="http://www.w3.org/2000/svg" xmlns:xlink="http://www.w3.org/1999/xlink" xml:space="preserve" style="fill-rule:evenodd;clip-rule:evenodd;stroke-linejoin:round;stroke-miterlimit:2;">
    <g transform="matrix(0.0514208,0,0,0.0514208,-2.99711,0.602195)">
        <path d="M91.938,166.33L342.938,11.97C347.497,9.165 353.071,9.404 357.297,12.115L604.697,164.265C628.646,178.988 633.615,207.878 608.064,223.589L357.054,377.949C352.496,380.753 346.921,380.515 342.695,377.804L95.295,225.654C71.346,210.931 66.385,182.045 91.936,166.33L91.938,166.33ZM590.578,357.31C575.496,348.037 589.613,325.072 604.691,334.345C628.64,349.068 633.601,377.954 608.05,393.669L357.05,548.029C352.492,550.834 346.917,550.595 342.691,547.884L95.291,395.734C71.342,381.004 66.381,352.121 91.932,336.41C107.014,327.137 121.127,350.101 106.045,359.375C98.221,364.192 103.029,368.848 109.404,372.77L349.994,520.73L593.944,370.71C601.769,365.894 596.96,361.234 590.585,357.315L590.578,357.31ZM590.578,270.552C575.496,261.279 589.613,238.314 604.691,247.587C628.648,262.317 633.601,291.189 608.05,306.911L357.05,461.271C352.492,464.076 346.917,463.837 342.691,461.126L95.291,308.976C72.135,294.742 65.725,265.765 91.932,249.652C107.014,240.379 121.127,263.351 106.045,272.617C98.221,277.434 103.029,282.09 109.404,286.012L349.994,433.972L593.944,283.952C601.769,279.136 596.96,274.476 590.585,270.557L590.578,270.552ZM349.988,39.262L106.038,189.282C98.214,194.098 103.03,198.759 109.397,202.677L349.987,350.637L593.937,200.617C601.762,195.801 596.953,191.144 590.578,187.222L349.988,39.262Z" style="fill-rule:nonzero;"/>
    </g>
</svg>
